<svg version="1.1" id="svg5" inkscape:version="1.1.1 (3bf5ae0d25, 2021-09-20)" sodipodi:docname="support-top.svg" xmlns:inkscape="http://www.inkscape.org/namespaces/inkscape" xmlns:sodipodi="http://sodipodi.sourceforge.net/DTD/sodipodi-0.dtd" xmlns="http://www.w3.org/2000/svg" xmlns:svg="http://www.w3.org/2000/svg" viewBox="-71.23 17.97 361.45 23.85">
  <sodipodi:namedview id="namedview7" pagecolor="#505050" bordercolor="#eeeeee" borderopacity="1" inkscape:pageshadow="0" inkscape:pageopacity="0" inkscape:pagecheckerboard="0" inkscape:document-units="mm" showgrid="false" inkscape:snap-bbox="true" inkscape:bbox-paths="true" inkscape:snap-nodes="false" inkscape:bbox-nodes="true" inkscape:snap-bbox-midpoints="true" inkscape:snap-bbox-edge-midpoints="true" inkscape:snap-object-midpoints="true" inkscape:snap-center="true" inkscape:zoom="0.60756173" inkscape:cx="41.148082" inkscape:cy="562.0828" inkscape:window-width="1920" inkscape:window-height="1056" inkscape:window-x="0" inkscape:window-y="0" inkscape:window-maximized="1" inkscape:current-layer="layer1"/>
  <defs id="defs2"/>
  <g inkscape:label="Layer 1" inkscape:groupmode="layer" id="layer1">
    <path id="rect402" style="fill:#ffffff;stroke-width:0.264583" d="m -71.212162,17.972085 v 23.837304 h 5.16e-4 V 23.928827 c 0.474036,0.09472 0.94197,0.20162 1.409735,0.308509 1.076409,0.245959 2.150099,0.491577 3.284553,0.584978 0.876326,0.08932 1.564568,0.267944 2.253094,0.625285 0.332872,0.175019 0.670552,0.332737 1.020093,0.461986 h 4.148582 c 0.198913,-0.05072 0.396224,-0.102928 0.593762,-0.15503 h 5.18e-4 c 1.176444,-0.310298 2.348572,-0.619599 3.751707,-0.619599 2.197659,0 4.507738,-0.401947 6.716903,-0.786516 0.06866,-0.012 0.137224,-0.02427 0.205674,-0.03617 0.05014,-0.0087 0.100349,-0.01684 0.150379,-0.02584 1.251902,-0.223333 2.316011,-0.04463 3.442681,0.402042 1.690161,0.670028 3.442682,0.670062 5.383136,0.402042 0.531019,-0.07395 1.06489,-0.170902 1.600935,-0.2682 2.053696,-0.372822 4.138475,-0.7517 6.223392,0.133842 0.43815,0.178679 1.126953,0.178938 1.627809,0.04496 1.028436,-0.255259 2.05613,-0.282659 3.084566,-0.31006 0.411427,-0.0109 0.822606,-0.02204 1.234033,-0.04754 0.512498,-0.03324 1.025368,-0.07766 1.538924,-0.121954 1.556015,-0.1343 3.120442,-0.269216 4.720642,-0.101285 0.563298,0.04466 1.56501,-0.0891 1.752865,-0.357085 1.126595,-1.474052 2.941844,-1.697423 5.007446,-1.831414 0.07514,-0.0043 0.149679,-0.0095 0.223759,-0.01447 0.664104,-0.04381 1.272541,-0.08383 1.779219,0.237713 0.4384144,0.268049 0.9389362,0.357084 1.5022341,0.357084 0.719931,0.02235 1.4398911,0.06692 2.1595583,0.11162 0.719931,0.04468 1.4398921,0.08932 2.159558,0.111622 1.189302,0.04467 2.2531372,-0.178279 3.0669962,-0.892969 0.37544399,-0.357349 0.87640739,-0.447101 1.43970539,-0.5364 1.31445001,-0.178652 2.56671851,0.04507 3.69331471,0.5364 0.813594,0.312719 1.502366,0.312383 2.378666,0.267685 1.032669,-0.08935 2.0809807,-0.145222 3.1295247,-0.201023 1.0482786,-0.05586 2.0965916,-0.11172 3.1295246,-0.20102 0.751417,-0.06995 1.485987,0.03092 2.212268,0.130226 0.665162,0.09094 1.323508,0.180676 1.981791,0.137974 2.44131,-0.17867 4.819922,-0.178707 7.198527,0.312643 0.722841,0.140679 1.483796,0.199482 2.248442,0.258381 1.420284,0.109382 2.852614,0.219567 4.073137,0.858346 0.127262,0.0605 0.283646,0.0388 0.429429,0.01861 0.06932,-0.0098 0.136568,-0.01861 0.196887,-0.01861 0.939007,-0.08932 1.877878,-0.178838 2.816884,0.133842 0.43815,0.17867 1.001308,0.04475 1.251604,-0.223243 0.813858,-0.848709 1.752904,-0.66994 2.754352,-0.223242 0.250296,0.119121 0.500647,0.118856 0.769464,0.118856 0.134408,0 0.27356,8.8e-5 0.41961,0.01499 0.937686,0.0297 1.882344,2.46e-4 2.829285,-0.02946 1.897594,-0.05959 3.804819,-0.119512 5.683893,0.297657 0.834496,0.191352 1.696953,0.180083 2.561082,0.168984 0.950915,-0.01225 1.903431,-0.02433 2.821535,0.233058 0.184412,0.0526 0.390287,0.01203 0.605131,-0.02997 0.150016,-0.0294 0.304885,-0.05943 0.459402,-0.05943 0.506677,-0.04519 0.885153,-0.273434 1.240752,-0.487826 0.347398,-0.209359 0.672968,-0.405659 1.07487,-0.405659 2.816754,-0.08935 5.571207,-0.2232 8.074959,-1.250569 0.250296,-0.0894 0.625959,-0.08914 0.938961,-0.04444 1.372392,0.235051 2.696586,-0.01096 4.01474,-0.255799 0.184944,-0.03433 0.369546,-0.0688 0.55449,-0.101801 0.240771,-0.03439 0.481412,-0.07099 0.721918,-0.107487 1.32424,-0.200631 2.648911,-0.400778 3.972886,-0.249597 0.306123,0.04093 0.588513,0.102295 0.867645,0.163298 0.633677,0.13861 1.248535,0.273404 2.074294,0.149344 0.522819,-0.09327 1.049094,-0.179517 1.575615,-0.265618 1.742538,-0.28498 3.487319,-0.57046 5.12165,-1.119312 0.938999,-0.312639 1.815614,-0.401783 2.754353,-0.357084 0.375711,0 0.68857,-2.57e-4 1.064019,-0.04496 0.606949,-0.07425 1.214062,-0.179176 1.823662,-0.284737 1.590939,-0.27546 3.199839,-0.554445 4.874119,-0.296106 0.33391,0.05956 0.612045,-0.03971 0.890387,-0.139009 0.139168,-0.04963 0.277696,-0.09887 0.423746,-0.128675 0.159811,-0.03631 0.320741,-0.07435 0.482139,-0.112654 1.230051,-0.291669 2.509036,-0.594847 3.836979,-0.199988 1.00144,0.26801 1.94083,0.357343 3.00498,0.402042 3.94335,0.08934 7.63606,0.937967 11.20397,2.054656 0.93901,0.267978 1.69047,0.268079 2.56677,0.0894 0.44767,-0.08876 0.8758,-0.213048 1.29966,-0.335897 0.64294,-0.18628 1.276,-0.369948 1.95492,-0.423749 1.7526,-0.133998 3.50539,0.04476 5.19555,0.491445 0.0304,0.0093 0.0618,0.01894 0.0941,0.02894 0.42995,0.133601 0.9964,0.3098 1.34565,0.06046 1.21311,-0.741992 2.31948,-0.418846 3.46698,-0.08372 0.0958,0.028 0.19227,0.05611 0.28887,0.08372 1.5023,0.491358 2.87918,0.223126 4.06848,-0.670245 0.43841,-0.357338 1.00137,-0.535884 1.68982,-0.535884 2.1283,-0.08934 4.19415,-0.401878 6.00945,-1.250569 0.11483,-0.04554 0.23229,-0.100497 0.35347,-0.157097 0.35461,-0.165555 0.74078,-0.345614 1.18494,-0.350366 z m 215.236472,0 c 0.14806,-0.0016 0.30265,0.01601 0.46457,0.06046 0.89323,0.23178 1.8447,0.304972 2.79931,0.378269 1.25281,0.09622 2.51093,0.192707 3.64784,0.649057 1.18904,0.491379 2.19067,0.536308 3.63027,0.04496 2.25346,-0.80401 4.69477,-0.536276 7.01095,0.357085 0.20425,0.08333 0.40682,0.17345 0.61029,0.263548 1.10516,0.48913 2.22847,0.986505 3.70882,0.496094 0.0505,-0.0361 0.18231,0.01535 0.29714,0.05995 0.0275,0.0106 0.0539,0.02046 0.078,0.02945 0.57176,0.300662 1.23067,0.497674 1.89239,0.696082 0.7149,0.214262 1.43377,0.429853 2.05104,0.777732 2.50402,1.47402 5.38324,1.965486 8.5757,1.206127 0.16907,-0.0306 0.36639,-0.01992 0.55397,-0.0098 0.0902,0.005 0.17822,0.0098 0.25942,0.0098 0.86095,0.09966 1.74828,0.119094 2.6386,0.138493 1.50469,0.03289 3.01883,0.06587 4.43435,0.486791 0.12542,0.0446 0.37611,2.6e-4 0.50126,-0.04444 0.47573,-0.301778 0.99585,-0.25342 1.52343,-0.20412 0.0968,0.0091 0.19405,0.01832 0.29145,0.02532 0.626,0.0223 1.23653,0.0559 1.84692,0.0894 0.61012,0.0336 1.2204,0.0671 1.8464,0.0894 1.35942,0.06252 2.50225,-0.334647 3.64525,-0.731737 0.48948,-0.17018 0.97925,-0.340381 1.48725,-0.47439 0.0741,-0.0187 0.14552,-0.03794 0.21962,-0.05684 0.80434,-0.20856 1.60585,-0.416067 2.41019,-0.211357 2.3786,0.53602 4.69377,1.116722 7.00888,1.831412 0.48154,0.15018 0.97639,0.17649 1.47381,0.203089 0.5371,0.02879 1.07402,0.05764 1.59525,0.243395 2.69081,0.982652 5.6332,1.250659 8.69973,1.02733 0.23812,-0.017 0.47598,-0.03609 0.71675,-0.0553 1.651,-0.13226 3.33913,-0.266996 4.97954,0.279054 0.32544,0.107259 0.69071,0.206869 1.07435,0.28267 h 2.87838 c 1.73302,-0.178671 3.44,-0.33537 5.18625,-0.37207 0.5424,-0.01381 1.08437,-0.08356 1.62677,-0.152964 1.20915,-0.15494 2.42113,-0.309666 3.63027,0.152964 0.87577,0.312679 1.69081,1.5e-5 2.44223,-0.312643 2.25425,-0.848712 4.50558,-1.563579 7.19904,-1.384929 1.11919,0.04209 2.13017,0.242765 3.18586,0.452686 l 0.19275,0.03876 c 0.75142,0.134011 1.56371,0.223081 1.93941,-0.3576 0.50272,-0.75932 1.31531,-0.803569 2.19109,-0.803569 0.35719,0 0.71153,0.0048 1.06608,0.0098 0.70908,0.0098 1.41843,0.01998 2.12752,-0.0098 1.75154,-0.134009 3.38142,-0.134056 5.06946,0.312642 0.24077,0.06845 0.48114,0.143296 0.72191,0.218591 1.01338,0.317712 2.0456,0.640525 3.15949,0.496094 0.87577,-0.08933 1.75133,-3.86e-4 2.56628,0.178284 1.81504,0.357291 3.81796,0.580731 5.44512,0.0894 2.12992,-0.692708 4.36846,-0.956376 6.58566,-1.217496 1.50019,-0.176638 2.99244,-0.351917 4.43178,-0.658357 0.87577,-0.178671 1.75133,-0.0893 2.56624,0 v -4.616773 z" inkscape:export-filename="/home/baltimoore/Documents/Task_2_Gatis_Ieviņš/assets/img/support-top.svg" inkscape:export-xdpi="96" inkscape:export-ydpi="96"/>
  </g>
</svg>