<svg version="1.1" id="svg5" sodipodi:docname="support-bottom.svg" inkscape:version="1.1.1 (3bf5ae0d25, 2021-09-20)" xmlns:inkscape="http://www.inkscape.org/namespaces/inkscape" xmlns:sodipodi="http://sodipodi.sourceforge.net/DTD/sodipodi-0.dtd" xmlns="http://www.w3.org/2000/svg" xmlns:svg="http://www.w3.org/2000/svg" viewBox="-71.63 263.95 361.45 28.83">
  <sodipodi:namedview id="namedview7" pagecolor="#505050" bordercolor="#eeeeee" borderopacity="1" inkscape:pageshadow="0" inkscape:pageopacity="0" inkscape:pagecheckerboard="0" inkscape:document-units="mm" showgrid="false" inkscape:snap-bbox="true" inkscape:bbox-paths="true" inkscape:snap-nodes="false" inkscape:bbox-nodes="true" inkscape:snap-bbox-midpoints="true" inkscape:snap-bbox-edge-midpoints="true" inkscape:snap-object-midpoints="true" inkscape:snap-center="true" inkscape:zoom="0.60756173" inkscape:cx="41.148082" inkscape:cy="562.0828" inkscape:window-width="1920" inkscape:window-height="1056" inkscape:window-x="0" inkscape:window-y="0" inkscape:window-maximized="1" inkscape:current-layer="layer1"/>
  <defs id="defs2"/>
  <g inkscape:label="Layer 1" inkscape:groupmode="layer" id="layer1">
    <path id="path506" style="fill:#ffffff;stroke-width:1.76703" d="M -270.69922 997.63477 L -270.69922 1106.5645 L -233.42578 1106.5645 C -237.56202 1106.5246 -241.06625 1105.2168 -244.4375 1103.4316 C -247.0398 1102.0706 -249.64298 1101.3909 -252.95508 1101.0508 C -257.24278 1100.6947 -261.30082 1099.7622 -265.36914 1098.8262 C -267.13706 1098.4192 -268.90566 1098.0113 -270.69727 1097.6504 L -270.69727 997.63477 L -270.69922 997.63477 z M -233.42578 1106.5645 L 1095.3008 1106.5645 L 1095.3008 1092.5469 C 1092.2208 1092.2067 1088.9116 1091.8669 1085.6016 1092.5469 C 1080.1615 1093.7139 1074.5215 1094.3827 1068.8516 1095.0547 C 1060.4716 1096.0487 1052.011 1097.0525 1043.9609 1099.6895 C 1037.811 1101.5593 1030.2409 1100.7096 1023.3809 1099.3496 C 1020.3007 1098.6696 1016.9916 1098.329 1013.6816 1098.6699 C 1009.4717 1099.2189 1005.5703 1097.9903 1001.7402 1096.7812 C 1000.8302 1096.4944 999.92172 1096.2093 999.01172 1095.9492 C 992.63173 1094.2482 986.47156 1094.2468 979.85156 1094.7578 C 977.17154 1094.8716 974.49053 1094.835 971.81055 1094.7969 C 971.01053 1094.7855 970.22164 1094.7732 969.43164 1094.7656 C 968.88164 1094.7618 968.33125 1094.7578 967.78125 1094.7578 C 964.47125 1094.7578 961.40001 1094.9283 959.5 1097.8184 C 958.07999 1100.0293 955.00993 1099.6897 952.16992 1099.1797 L 951.44141 1099.0332 C 947.4514 1098.2342 943.6304 1097.4685 939.40039 1097.3086 C 929.22038 1096.6286 920.71141 1099.3501 912.19141 1102.5801 C 909.35139 1103.7711 906.27093 1104.9614 902.96094 1103.7715 C 898.39096 1102.0105 893.81025 1102.5995 889.24023 1103.1895 C 887.19022 1103.4544 885.14181 1103.7186 883.0918 1103.7715 C 875.32181 1103.9355 867.77152 1104.7317 860.02148 1105.5527 L 859.20117 1105.6406 C 855.65118 1105.9808 851.62078 1105.1313 848.55078 1104.1113 C 842.35081 1102.0323 835.97047 1102.5448 829.73047 1103.0488 C 828.82047 1103.1218 827.92147 1103.1948 827.02148 1103.2598 C 815.43145 1104.1098 804.31062 1103.0904 794.14062 1099.3496 C 792.17062 1098.6415 790.14131 1098.5319 788.11133 1098.4219 C 786.23132 1098.321 784.36101 1098.2204 782.54102 1097.6484 C 773.79099 1094.9284 765.04077 1092.7177 756.05078 1090.6777 C 753.01076 1089.8977 749.98139 1090.6891 746.94141 1091.4824 C 746.78115 1091.5225 746.63077 1091.5635 746.4707 1091.6035 C 746.35089 1091.6338 746.23114 1091.667 746.11133 1091.6973 C 744.20131 1092.2073 742.34024 1092.8549 740.49023 1093.502 L 740.49023 1093.5039 C 736.17023 1095.0149 731.85089 1096.5272 726.71289 1096.2891 C 724.34691 1096.2044 722.0414 1096.0762 719.73438 1095.9492 C 717.42739 1095.8211 715.12184 1095.6944 712.75586 1095.6094 C 712.39 1095.5829 712.02211 1095.5477 711.65625 1095.5137 L 711.65234 1095.5137 C 709.65834 1095.3258 707.69253 1095.1403 705.89453 1096.2891 C 705.42149 1096.4591 704.47598 1096.6291 704.00195 1096.459 C 698.65196 1094.8571 692.92725 1094.7313 687.24023 1094.6055 C 683.87426 1094.5314 680.52156 1094.4581 677.26758 1094.0781 C 677.14663 1094.0781 677.02152 1094.076 676.89453 1094.0723 C 676.69762 1094.0647 676.49618 1094.0524 676.28906 1094.041 C 675.58006 1094.0032 674.83236 1093.9659 674.19336 1094.0801 C 662.12737 1096.9711 651.24526 1095.1003 641.78125 1089.4883 C 639.44826 1088.1643 636.73128 1087.3453 634.0293 1086.5293 C 631.52831 1085.7743 629.03794 1085.0209 626.87695 1083.877 C 626.78624 1083.8429 626.68597 1083.8057 626.58203 1083.7656 C 626.14803 1083.5955 625.64985 1083.3992 625.45898 1083.5371 C 619.86396 1085.4041 615.62034 1083.5106 611.44336 1081.6484 C 610.67434 1081.3053 609.90673 1080.9636 609.13477 1080.6465 C 600.38074 1077.2455 591.15373 1076.2261 582.63672 1079.2871 C 577.19571 1081.157 573.41003 1080.9873 568.91602 1079.1172 C 564.619 1077.3792 559.86394 1077.0115 555.12891 1076.6445 C 551.52089 1076.3656 547.92482 1076.0871 544.54883 1075.2051 C 542.10083 1074.5281 540.10145 1075.4677 538.31445 1076.3086 C 537.85645 1076.5236 537.41252 1076.7331 536.97852 1076.9062 C 530.11754 1080.1373 522.30959 1081.3259 514.26562 1081.666 C 511.66361 1081.666 509.53589 1082.346 507.87891 1083.707 C 503.38391 1087.108 498.17994 1088.1288 492.50195 1086.2578 C 492.27594 1086.1928 492.0491 1086.1274 491.82422 1086.0605 L 491.41016 1085.9395 C 487.07315 1084.6633 482.89162 1083.4339 478.30664 1086.2578 C 476.98664 1087.2078 474.84571 1086.5384 473.2207 1086.0293 C 473.09862 1085.9911 472.98013 1085.9554 472.86523 1085.918 C 466.47723 1084.2181 459.85252 1083.5369 453.22852 1084.0469 C 450.66252 1084.2517 448.26883 1084.9512 445.83984 1085.6602 C 444.23785 1086.1272 442.61972 1086.6016 440.92773 1086.9395 C 437.61573 1087.6194 434.77558 1087.6176 431.22656 1086.5977 C 417.74155 1082.3456 403.78486 1079.1175 388.88086 1078.7773 C 384.85888 1078.6073 381.30841 1078.2661 377.52344 1077.2461 C 372.50445 1075.7431 367.6705 1076.8969 363.02148 1078.0078 L 363.01367 1078.0098 C 362.40668 1078.1549 361.80215 1078.2989 361.20117 1078.4355 C 360.64917 1078.5497 360.12365 1078.7386 359.59766 1078.9277 C 358.54566 1079.306 357.49441 1079.683 356.23242 1079.457 C 349.9044 1078.473 343.82355 1079.533 337.81055 1080.582 L 337.80859 1080.582 C 335.50459 1080.984 333.21097 1081.3841 330.91797 1081.666 C 329.49895 1081.8361 328.31649 1081.8359 326.89648 1081.8359 C 323.34849 1081.6659 320.0373 1082.0064 316.48828 1083.1973 C 310.31129 1085.2863 303.71488 1086.373 297.12891 1087.457 C 295.13887 1087.7851 293.14984 1088.1139 291.17383 1088.4688 C 288.05285 1088.9408 285.72898 1088.4302 283.33398 1087.9023 C 282.28 1087.6703 281.21169 1087.4354 280.05469 1087.2793 C 275.05069 1086.7033 270.04601 1087.4664 265.04102 1088.2305 C 264.13201 1088.3684 263.2225 1088.5075 262.3125 1088.6387 C 261.6135 1088.7638 260.91384 1088.8942 260.21484 1089.0254 C 255.23284 1089.9572 250.22801 1090.893 245.04102 1089.998 C 243.85802 1089.828 242.43819 1089.8274 241.49219 1090.168 C 232.02919 1094.0789 221.62061 1094.5907 210.97461 1094.9316 C 209.45561 1094.9316 208.22316 1095.6776 206.91016 1096.4746 C 205.56616 1097.2906 204.1357 1098.1581 202.2207 1098.3301 C 201.63671 1098.3301 201.05333 1098.4467 200.48633 1098.5586 C 199.67433 1098.7185 198.89622 1098.871 198.19922 1098.6699 C 194.72922 1097.6909 191.12916 1097.7383 187.53516 1097.7852 C 184.26916 1097.8271 181.00751 1097.8695 177.85352 1097.1406 C 170.7515 1095.5526 163.54505 1095.7807 156.37305 1096.0078 C 152.79405 1096.1208 149.22369 1096.2341 145.67969 1096.1211 C 145.12769 1096.064 144.60175 1096.0645 144.09375 1096.0645 C 143.07775 1096.0645 142.12959 1096.0643 141.18359 1095.6113 C 137.39859 1093.9103 133.84944 1093.2299 130.77344 1096.4609 C 129.82744 1097.481 127.69897 1097.9906 126.04297 1097.3105 C 122.49397 1096.1206 118.94548 1096.4606 115.39648 1096.8008 C 115.1685 1096.8008 114.91629 1096.8349 114.6543 1096.873 C 114.1033 1096.949 113.51225 1097.0317 113.03125 1096.8008 C 108.41825 1094.3688 103.00472 1093.9492 97.636719 1093.5332 C 94.746718 1093.3091 91.868716 1093.0868 89.136719 1092.5508 C 80.146716 1090.6798 71.156686 1090.6784 61.929688 1091.3594 C 59.441689 1091.5215 56.953451 1091.1791 54.439453 1090.832 C 51.695456 1090.454 48.919082 1090.0718 46.080078 1090.3379 C 42.176079 1090.678 38.211999 1090.8923 34.25 1091.1055 C 30.286999 1091.3175 26.324876 1091.529 22.421875 1091.8691 C 19.109875 1092.0392 16.506642 1092.0396 13.431641 1090.8496 C 9.1736396 1088.9787 4.4426098 1088.1286 -0.52539062 1088.8086 C -2.6543909 1089.1488 -4.5477959 1089.4886 -5.9667969 1090.8496 C -9.0427994 1093.5696 -13.065547 1094.4201 -17.560547 1094.25 C -20.280544 1094.1653 -23.001657 1093.9941 -25.722656 1093.8242 C -28.442658 1093.6545 -31.163767 1093.4856 -33.884766 1093.4004 C -36.013766 1093.4004 -37.905502 1093.0591 -39.5625 1092.0391 C -41.477503 1090.8151 -43.777114 1090.9688 -46.287109 1091.1348 L -46.291016 1091.1367 C -46.569 1091.1518 -46.849801 1091.1743 -47.132812 1091.1895 C -54.939812 1091.6995 -61.800597 1092.5491 -66.058594 1098.1602 C -66.768597 1099.1809 -70.552637 1099.6916 -72.681641 1099.5215 C -78.729641 1098.8815 -84.644389 1099.3971 -90.525391 1099.9082 C -92.466393 1100.0775 -94.402843 1100.2442 -96.339844 1100.3711 C -97.893842 1100.4678 -99.447959 1100.5119 -101.00195 1100.5527 L -101.00391 1100.5527 C -104.8909 1100.6567 -108.77706 1100.7613 -112.66406 1101.7324 C -114.55706 1102.2424 -117.15845 1102.2427 -118.81445 1101.5625 C -126.69445 1098.1915 -134.57394 1099.6318 -142.33594 1101.0508 C -144.36193 1101.4219 -146.37972 1101.7914 -148.38672 1102.0723 C -155.72072 1103.0933 -162.34442 1103.092 -168.73242 1100.541 C -172.99072 1098.8398 -177.01254 1098.1607 -181.74414 1099.0117 L -182.27148 1099.1035 L -183.08984 1099.2461 C -191.43924 1100.7101 -200.17261 1102.2422 -208.47852 1102.2422 C -213.78171 1102.2422 -218.2118 1103.4186 -222.6582 1104.5996 C -224.7572 1105.1566 -226.86065 1105.7163 -229.06055 1106.1523 C -230.5983 1106.4501 -232.04704 1106.5777 -233.42578 1106.5645 z " transform="scale(0.26458333)" inkscape:export-filename="/home/baltimoore/Documents/Task_2_Gatis_Ieviņš/assets/img/support-bottom.svg" inkscape:export-xdpi="96" inkscape:export-ydpi="96"/>
  </g>
</svg>